<svg width="1440" height="1391" viewBox="0 0 1440 1391" fill="none" xmlns="http://www.w3.org/2000/svg">
<path d="M-40.7678 124.44C-149.888 -316.41 254.333 -361.283 546.046 -228.17C716.247 -159.711 828.021 -372.612 1038.87 -287.646C1249.71 -202.68 996.953 64.9639 1319.57 202.326C1642.19 339.688 1484.69 954.276 1202.72 961.357C920.743 968.437 998.223 1071.81 716.247 1308.3C434.272 1544.79 -40.7672 1216.26 77.3575 869.31C195.482 522.365 77.3561 601.667 -40.7678 124.44Z" stroke="#C8C8C8" stroke-opacity="0.3" stroke-width="3" stroke-linecap="round" stroke-linejoin="round" stroke-dasharray="6 6"/>
<path d="M566.109 909.53C553.519 867.541 612.491 799.803 659.91 828.712C703.333 855.184 747.551 837.33 776.764 849.132C853.673 880.201 825.383 896.647 859.763 933.547C901.599 978.449 921.562 1096.03 825.383 1096.03C746.28 1096.03 769.949 1138.86 710.716 1157.84C651.483 1176.82 584.309 1144.51 584.309 1059.46C584.309 1027.52 587.079 979.463 566.109 909.53Z" stroke="#C8C8C8" stroke-opacity="0.3" stroke-width="3" stroke-linecap="round" stroke-linejoin="round" stroke-dasharray="6 6"/>
<path d="M14.3955 153.488C-85.9489 -251.102 286.885 -298.053 556.39 -174.413C715.066 -109.771 820.698 -304.941 1015.03 -226.626C1213.7 -146.559 981.348 98.248 1277.77 226.477C1574.86 355.434 1433.49 924.839 1168.41 931.276C904.875 937.713 977.463 1035.58 715.737 1252.3C454.011 1469.02 16.0506 1167.41 123.437 844.273C230.823 525.964 123.687 593.688 14.3955 153.488Z" stroke="#C8C8C8" stroke-opacity="0.3" stroke-width="3" stroke-linecap="round" stroke-linejoin="round" stroke-dasharray="6 6"/>
<path d="M69.5571 182.538C-22.0119 -185.792 319.436 -234.822 566.732 -120.655C713.883 -59.8304 813.374 -237.268 991.196 -165.605C1177.69 -90.4381 965.742 131.533 1235.96 250.629C1507.52 371.181 1382.29 895.403 1134.1 901.197C889.006 906.99 956.702 999.358 715.225 1196.3C473.749 1393.24 72.8666 1118.57 169.514 819.237C266.162 529.565 170.017 585.711 69.5571 182.538Z" stroke="#C8C8C8" stroke-opacity="0.3" stroke-width="3" stroke-linecap="round" stroke-linejoin="round" stroke-dasharray="6 6"/>
<path d="M124.722 211.589C41.9285 -120.481 351.99 -171.59 577.078 -66.8958C712.703 -9.88801 806.053 -169.594 967.363 -104.582C1141.68 -34.3151 950.139 164.82 1194.15 274.783C1440.19 386.929 1331.09 865.969 1099.79 871.119C873.14 876.268 935.944 963.133 714.717 1140.3C493.489 1317.47 129.686 1069.72 215.595 794.202C301.504 533.167 216.349 577.735 124.722 211.589Z" stroke="#C8C8C8" stroke-opacity="0.3" stroke-width="3" stroke-linecap="round" stroke-linejoin="round" stroke-dasharray="6 6"/>
<path d="M179.886 240.642C105.868 -55.1674 384.544 -108.355 587.423 -13.1341C711.523 40.0567 798.731 -101.918 943.529 -43.5573C1105.67 21.8101 934.536 198.109 1152.34 298.939C1372.86 402.68 1279.89 836.537 1065.48 841.043C857.273 845.549 915.186 926.909 714.208 1084.3C513.229 1241.7 186.505 1020.88 261.675 769.17C336.845 536.772 262.682 569.762 179.886 240.642Z" stroke="#C8C8C8" stroke-opacity="0.3" stroke-width="3" stroke-linecap="round" stroke-linejoin="round" stroke-dasharray="6 6"/>
<path d="M235.049 271.167C169.807 11.6179 417.096 -43.6484 597.766 42.0993C710.341 91.4731 791.408 -32.7701 919.694 18.9395C1069.66 79.4071 918.931 232.87 1110.53 324.567C1305.52 419.902 1228.69 808.577 1031.17 812.439C841.406 816.301 894.426 892.158 713.697 1029.78C532.968 1167.4 243.322 973.514 307.754 745.609C372.186 541.848 309.012 563.26 235.049 271.167Z" stroke="#C8C8C8" stroke-opacity="0.3" stroke-width="3" stroke-linecap="round" stroke-linejoin="round" stroke-dasharray="6 6"/>
<path d="M290.218 303.433C233.751 80.1441 449.654 22.7992 608.116 99.0737C709.165 144.631 784.09 38.1189 895.864 83.1772C1033.65 138.745 903.332 269.372 1068.73 351.936C1238.2 438.866 1177.49 782.358 996.861 785.576C825.544 788.795 873.672 859.148 713.192 976.995C552.713 1094.84 300.146 927.886 353.839 723.79C407.532 548.665 355.349 558.5 290.218 303.433Z" stroke="#C8C8C8" stroke-opacity="0.3" stroke-width="3" stroke-linecap="round" stroke-linejoin="round" stroke-dasharray="6 6"/>
<path d="M345.384 483.796C297.692 296.767 482.208 237.344 618.462 304.145C707.986 345.885 776.77 257.105 872.032 295.512C997.645 346.18 887.729 453.971 1026.92 527.402C1170.86 605.926 1126.29 904.236 962.553 906.811C809.678 909.385 852.914 974.235 712.684 1072.31C572.454 1170.38 356.965 1030.36 399.92 850.068C442.874 703.58 401.682 701.836 345.384 483.796Z" stroke="#C8C8C8" stroke-opacity="0.3" stroke-width="3" stroke-linecap="round" stroke-linejoin="round" stroke-dasharray="6 6"/>
<path d="M400.552 516.299C361.636 365.53 514.766 304.028 628.811 361.356C706.81 399.279 769.452 328.23 848.202 359.986C961.639 405.755 872.13 490.709 985.121 555.008C1103.53 625.126 1075.1 878.253 928.247 880.184C793.816 882.115 832.16 941.461 712.179 1019.76C592.198 1098.06 413.788 984.965 446.004 828.484C478.22 710.633 448.018 697.312 400.552 516.299Z" stroke="#C8C8C8" stroke-opacity="0.3" stroke-width="3" stroke-linecap="round" stroke-linejoin="round" stroke-dasharray="6 6"/>
<path d="M455.725 696.007C425.583 581.498 547.328 517.917 639.164 565.772C705.637 599.878 762.138 546.561 824.376 571.665C925.637 612.534 856.534 674.652 943.322 729.818C1036.21 791.531 1023.91 999.476 893.946 1000.76C777.957 1002.05 811.41 1055.89 711.678 1114.42C611.947 1172.95 470.615 1086.78 492.092 954.107C513.57 864.892 494.359 839.993 455.725 696.007Z" stroke="#C8C8C8" stroke-opacity="0.3" stroke-width="3" stroke-linecap="round" stroke-linejoin="round" stroke-dasharray="6 6"/>
<path d="M510.905 876.026C489.539 797.778 579.897 732.118 649.525 770.5C704.473 800.789 754.833 765.204 800.558 783.657C889.643 819.626 840.947 858.908 901.531 904.941C968.892 958.248 972.722 1121.01 859.653 1121.65C762.107 1122.3 790.667 1170.64 711.185 1209.39C631.703 1248.14 527.45 1188.9 538.189 1080.04C548.927 1019.46 540.707 982.986 510.905 876.026Z" stroke="#C8C8C8" stroke-opacity="0.3" stroke-width="3" stroke-linecap="round" stroke-linejoin="round" stroke-dasharray="6 6"/>
</svg>
